<svg xmlns="http://www.w3.org/2000/svg" version="1.1" xmlns:xlink="http://www.w3.org/1999/xlink" xmlns:svgjs="http://svgjs.dev/svgjs" width="100%" height="100%" viewBox="0 0 1000 600"><rect width="1000" height="600" x="0" y="0" fill="white"/><g><rect width="333.3333333333333" height="333.3333333333333" rx="13.333333333333334" ry="13.333333333333334" y="207.95463524260373" fill="red" transform="matrix(0.6730110518842886,0,0,0.6730110518842884,0,47.875689211504934)" x="185.732421875"/><path d="M285.21206354579533 299.62130886657496L432.940045784281 362.5424864866707L432.940045784281 364.1653613700188L419.53973603320685 392.40338434027547L285.21206354579533 449.621315941748L271.8581216485311 421.3832929714913L271.8581216485311 419.7604180881432L383.3728100614495 374.5981284772565L271.8581216485311 329.4822067201797L271.8581216485311 327.8129639830217L285.21206354579533 299.62130886657496Z " fill="white" transform="matrix(0.6730110518842886,0,0,0.6730110518842884,0,47.875689211504934)"/><path d="M641.5493512057587 449.62130659925026L640.6101741294274 449.62130659925026L640.6101741294274 400.16692512271Q625.7980099541423 397.7250647242481 615.1450585454681 387.2599487308403L615.1450585454681 387.2599487308403Q602.3990839381124 374.7018095387508 602.3990839381124 353.771577551935L602.3990839381124 353.771577551935L602.3990839381124 308.10073801147297L620.3239492806674 299.62131069373737L621.2631263569989 299.62131069373737L621.2631263569989 353.771577551935Q621.2631263569989 366.41021763628146 628.0788685680902 374.24563781596123L628.0788685680902 374.24563781596123Q636.4509613628165 383.9594121483039 650.0556121542468 383.9594121483039L650.0556121542468 383.9594121483039Q664.3847709759898 383.9594121483039 672.0323557404033 374.24563781596123L672.0323557404033 374.24563781596123Q678.8212643207422 365.55154145220695 678.8212643207422 353.771577551935L678.8212643207422 353.771577551935L678.8212643207422 308.10073801147297L696.7461296632972 299.62131069373737L697.6853067396287 299.62131069373737L697.6853067396287 353.771577551935Q697.6853067396287 374.13830329295195 684.9661657630253 387.2599487308403L684.9661657630253 387.2599487308403Q674.6620515541314 397.8323992472574 659.4742165483137 400.16692512271L659.4742165483137 400.16692512271L659.4742165483137 441.11504565076234L641.5493512057587 449.62130659925026ZM718.4545369419305 409.98803397806194L718.4545369419305 409.98803397806194L718.4545369419305 377.92184522903017Q718.4545369419305 362.35833939267997 730.1539999499455 350.8467117999313L730.1539999499455 350.8467117999313Q741.0752876661429 340.1669267605048 757.6048042095769 340.1669267605048L757.6048042095769 340.1669267605048Q773.9196517069922 340.1669267605048 785.0556084692083 350.8467117999313L785.0556084692083 350.8467117999313Q796.7550714772233 362.17050397741366 796.7550714772233 377.92184522903017L796.7550714772233 377.92184522903017L796.7550714772233 409.98803397806194Q796.7550714772233 425.55153981441214 785.0556084692083 437.0631674071608L785.0556084692083 437.0631674071608Q774.1074871222585 447.716118815835 757.6048042095769 447.716118815835L757.6048042095769 447.716118815835Q741.2631230814092 447.716118815835 730.1539999499455 437.0631674071608L730.1539999499455 437.0631674071608Q718.4545369419305 425.73937522967844 718.4545369419305 409.98803397806194ZM737.318579360817 377.92184522903017L737.318579360817 409.98803397806194Q737.318579360817 420.82882080200244 743.1951444955768 425.87354338344005Q749.0985432610889 430.94509959563004 757.6048042095769 430.94509959563004Q766.0842315273125 430.94509959563004 771.9876302928246 425.87354338344005Q777.8641954275844 420.82882080200244 777.8641954275844 409.98803397806194L777.8641954275844 409.98803397806194L777.8641954275844 377.92184522903017Q777.8641954275844 367.05422477433734 771.9876302928246 362.00950219289973Q766.0842315273125 356.96477961146206 757.6048042095769 356.96477961146206Q749.0985432610889 356.96477961146206 743.1951444955768 362.00950219289973Q737.318579360817 367.05422477433734 737.318579360817 377.92184522903017L737.318579360817 377.92184522903017ZM902.3990757491382 338.28857260784184L903.3382528254696 338.28857260784184L903.3382528254696 409.98803397806194Q903.3382528254696 425.55153981441214 891.6387898174547 437.0631674071608L891.6387898174547 437.0631674071608Q880.6906684705049 447.716118815835 864.1879855578233 447.716118815835L864.1879855578233 447.716118815835Q847.8731380604079 447.716118815835 836.7371812981918 437.0631674071608L836.7371812981918 437.0631674071608Q825.0377182901768 425.73937522967844 825.0377182901768 409.98803397806194L825.0377182901768 409.98803397806194L825.0377182901768 346.7948335563298L842.9625836327319 338.28857260784184L843.9017607090633 338.28857260784184L843.9017607090633 409.98803397806194Q843.9017607090633 420.82882080200244 849.8051594745755 425.87354338344005Q855.7085582400877 430.94509959563004 864.1879855578233 430.94509959563004Q872.6942465063112 430.94509959563004 878.570811641071 425.87354338344005Q884.4742104065832 420.82882080200244 884.4742104065832 409.98803397806194L884.4742104065832 409.98803397806194L884.4742104065832 346.7948335563298L902.3990757491382 338.28857260784184ZM945.1450495375965 449.62130659925026L944.1790388305127 449.62130659925026L944.1790388305127 320.55154268055315L903.8212581790116 320.55154268055315L903.8212581790116 319.6123656042217L911.468842943425 303.3780189990633L1003.4276955316526 303.3780189990633L1003.4276955316526 304.34402970614707L995.8069443979915 320.55154268055315L963.0699148801515 320.55154268055315L963.0699148801515 441.11504565076234L945.1450495375965 449.62130659925026ZM1081.272058344156 338.28857260784184L1082.2112354204874 338.28857260784184L1082.2112354204874 409.98803397806194Q1082.2112354204874 425.55153981441214 1070.5117724124725 437.0631674071608L1070.5117724124725 437.0631674071608Q1059.5636510655227 447.716118815835 1043.0609681528408 447.716118815835L1043.0609681528408 447.716118815835Q1026.7461206554258 447.716118815835 1015.6101638932095 437.0631674071608L1015.6101638932095 437.0631674071608Q1003.9107008851946 425.73937522967844 1003.9107008851946 409.98803397806194L1003.9107008851946 409.98803397806194L1003.9107008851946 346.7948335563298L1021.8355662277496 338.28857260784184L1022.7747433040811 338.28857260784184L1022.7747433040811 409.98803397806194Q1022.7747433040811 420.82882080200244 1028.6781420695934 425.87354338344005Q1034.554707204353 430.94509959563004 1043.0609681528408 430.94509959563004Q1051.5403954705766 430.94509959563004 1057.4437942360887 425.87354338344005Q1063.3471930016008 420.82882080200244 1063.3471930016008 409.98803397806194L1063.3471930016008 409.98803397806194L1063.3471930016008 346.7948335563298L1081.272058344156 338.28857260784184ZM1115.2166012458506 409.98803397806194L1115.2166012458506 409.98803397806194L1115.2166012458506 308.10073801147297L1133.1414665884058 299.62131069373737L1134.0806436647372 299.62131069373737L1134.0806436647372 348.1901823554508Q1141.2720567063611 340.1669267605048 1154.3668685134971 340.1669267605048L1154.3668685134971 340.1669267605048Q1170.6817160109126 340.1669267605048 1181.8176727731284 350.8467117999313L1181.8176727731284 350.8467117999313Q1193.5171357811435 362.17050397741366 1193.5171357811435 377.92184522903017L1193.5171357811435 377.92184522903017L1193.5171357811435 409.98803397806194Q1193.5171357811435 425.55153981441214 1181.8176727731284 437.0631674071608L1181.8176727731284 437.0631674071608Q1170.896385056931 447.716118815835 1154.3668685134971 447.716118815835L1154.3668685134971 447.716118815835Q1138.0520210160817 447.716118815835 1126.9160642538654 437.0631674071608L1126.9160642538654 437.0631674071608Q1115.2166012458506 425.73937522967844 1115.2166012458506 409.98803397806194ZM1134.0806436647372 377.92184522903017L1134.0806436647372 409.98803397806194Q1134.0806436647372 420.82882080200244 1139.9840424302492 425.87354338344005Q1145.8874411957613 430.94509959563004 1154.3668685134971 430.94509959563004Q1162.873129461985 430.94509959563004 1168.7496945967448 425.87354338344005Q1174.6530933622569 420.82882080200244 1174.6530933622569 409.98803397806194L1174.6530933622569 409.98803397806194L1174.6530933622569 377.92184522903017Q1174.6530933622569 367.05422477433734 1168.7496945967448 362.00950219289973Q1162.873129461985 356.96477961146206 1154.3668685134971 356.96477961146206Q1145.8874411957613 356.96477961146206 1139.9840424302492 362.00950219289973Q1134.0806436647372 367.05422477433734 1134.0806436647372 377.92184522903017L1134.0806436647372 377.92184522903017ZM1299.187973683811 404.0578015817975L1300.1271507601423 404.0578015817975L1300.1271507601423 409.98803397806194Q1300.1271507601423 425.55153981441214 1288.4276877521274 437.0631674071608L1288.4276877521274 437.0631674071608Q1277.4795664051776 447.716118815835 1260.9768834924957 447.716118815835L1260.9768834924957 447.716118815835Q1244.6620359950803 447.716118815835 1233.5260792328645 437.0631674071608L1233.5260792328645 437.0631674071608Q1221.8266162248497 425.73937522967844 1221.8266162248497 409.98803397806194L1221.8266162248497 409.98803397806194L1221.8266162248497 377.92184522903017Q1221.8266162248497 362.35833939267997 1233.5260792328645 350.8467117999313L1233.5260792328645 350.8467117999313Q1244.4742005798144 340.1669267605048 1260.9768834924957 340.1669267605048L1260.9768834924957 340.1669267605048Q1277.0233946823878 340.1669267605048 1288.4276877521274 350.8467117999313L1288.4276877521274 350.8467117999313Q1300.1271507601423 361.7948331468811 1300.1271507601423 375.1848148922927L1300.1271507601423 375.1848148922927L1300.1271507601423 375.372650307559L1242.569012796399 420.4531499714698Q1243.9911952262723 423.6731856617492 1246.5403901477434 425.84670975268773L1246.5403901477434 425.84670975268773Q1252.49745617476 430.94509959563004 1260.9768834924957 430.94509959563004Q1269.4563108102316 430.94509959563004 1275.3597095757436 425.84670975268773Q1281.2631083412557 420.7483199097454 1281.2631083412557 412.53722889953315L1281.2631083412557 412.53722889953315L1299.187973683811 404.0578015817975ZM1240.6906586437358 377.92184522903017L1240.6906586437358 401.40127213731705L1280.136095849658 369.4155842805422Q1278.6065788967753 364.80019979114184 1275.413376837248 362.0631694544044L1275.413376837248 362.0631694544044Q1269.4563108102316 356.96477961146206 1260.9768834924957 356.96477961146206Q1252.49745617476 356.96477961146206 1246.5940574092479 362.00950219289973Q1240.6906586437358 367.05422477433734 1240.6906586437358 377.92184522903017L1240.6906586437358 377.92184522903017Z " fill="black" transform="matrix(0.6730110518842886,0,0,0.6730110518842884,0,47.875689211504934)"/></g></svg>